<svg width="356" height="349" viewBox="0 0 356 349" fill="none" xmlns="http://www.w3.org/2000/svg">
<path d="M145.786 295.333H68.2201L62.0367 312.833H48.6667V324.5H165.333V312.833H151.963L145.786 295.333ZM72.3326 283.667H141.668L133.431 260.333H80.5692L72.3326 283.667ZM112.833 213.667H101.167C99.96 213.667 98.783 214.041 97.7978 214.738C96.8126 215.434 96.0678 216.42 95.6659 217.557L84.6876 248.667H129.313L118.334 217.557C117.932 216.42 117.188 215.434 116.202 214.738C115.217 214.041 114.04 213.667 112.833 213.667Z" fill="url(#paint0_linear_113_2)"/>
<path d="M322.562 82.0547L248.945 8.43748C247.906 7.38729 246.668 6.55361 245.304 5.98465C243.941 5.41569 242.478 5.12274 241 5.12274C239.522 5.12274 238.059 5.41569 236.695 5.98465C235.332 6.55361 234.094 7.38729 233.055 8.43748L159.437 82.0547C157.35 84.1726 156.181 87.0266 156.181 90C156.181 92.9733 157.35 95.8273 159.437 97.9453L233.055 171.562C234.094 172.613 235.332 173.446 236.695 174.015C238.059 174.584 239.522 174.877 241 174.877C242.478 174.877 243.941 174.584 245.304 174.015C246.668 173.446 247.906 172.613 248.945 171.562L322.562 97.9453C324.649 95.8273 325.819 92.9733 325.819 90C325.819 87.0266 324.649 84.1726 322.562 82.0547Z" fill="url(#paint1_linear_113_2)"/>
<path d="M221.812 95.0625V101.684H191.08L190.67 96.5566L208.453 68.3438H215.162L207.896 80.502L199.049 95.0625H221.812ZM216.979 68.3438V111H208.541V68.3438H216.979ZM255.094 85.9219V93.3047C255.094 96.5078 254.752 99.2715 254.068 101.596C253.385 103.9 252.398 105.795 251.109 107.279C249.84 108.744 248.326 109.828 246.568 110.531C244.811 111.234 242.857 111.586 240.709 111.586C238.99 111.586 237.389 111.371 235.904 110.941C234.42 110.492 233.082 109.799 231.891 108.861C230.719 107.924 229.703 106.742 228.844 105.316C228.004 103.871 227.359 102.152 226.91 100.16C226.461 98.168 226.236 95.8828 226.236 93.3047V85.9219C226.236 82.7188 226.578 79.9746 227.262 77.6895C227.965 75.3848 228.951 73.5 230.221 72.0352C231.51 70.5703 233.033 69.4961 234.791 68.8125C236.549 68.1094 238.502 67.7578 240.65 67.7578C242.369 67.7578 243.961 67.9824 245.426 68.4316C246.91 68.8613 248.248 69.5352 249.439 70.4531C250.631 71.3711 251.646 72.5527 252.486 73.998C253.326 75.4238 253.971 77.1328 254.42 79.125C254.869 81.0977 255.094 83.3633 255.094 85.9219ZM246.627 94.418V84.7793C246.627 83.2363 246.539 81.8887 246.363 80.7363C246.207 79.584 245.963 78.6074 245.631 77.8066C245.299 76.9863 244.889 76.3223 244.4 75.8145C243.912 75.3066 243.355 74.9355 242.73 74.7012C242.105 74.4668 241.412 74.3496 240.65 74.3496C239.693 74.3496 238.844 74.5352 238.102 74.9062C237.379 75.2773 236.764 75.873 236.256 76.6934C235.748 77.4941 235.357 78.5684 235.084 79.916C234.83 81.2441 234.703 82.8652 234.703 84.7793V94.418C234.703 95.9609 234.781 97.3184 234.938 98.4902C235.113 99.6621 235.367 100.668 235.699 101.508C236.051 102.328 236.461 103.002 236.93 103.529C237.418 104.037 237.975 104.408 238.6 104.643C239.244 104.877 239.947 104.994 240.709 104.994C241.646 104.994 242.477 104.809 243.199 104.438C243.941 104.047 244.566 103.441 245.074 102.621C245.602 101.781 245.992 100.688 246.246 99.3398C246.5 97.9922 246.627 96.3516 246.627 94.418ZM290.719 95.0625V101.684H259.986L259.576 96.5566L277.359 68.3438H284.068L276.803 80.502L267.955 95.0625H290.719ZM285.885 68.3438V111H277.447V68.3438H285.885Z" fill="white"/>
<path d="M16.9123 297C16.9123 297 19.0185 299.752 15.9379 303.899C12.8574 308.046 10.3178 311.565 11.3344 314.156C11.3344 314.156 15.9801 306.436 19.7742 306.325C23.5683 306.214 21.0709 301.642 16.9123 297Z" fill="#9E8AFC"/>
<path opacity="0.1" d="M16.9123 297C17.0952 297.266 17.2398 297.556 17.3419 297.862C21.0324 302.193 22.9966 306.237 19.4519 306.337C16.145 306.433 12.1629 312.335 11.2307 313.826C11.2633 313.942 11.3017 314.056 11.3458 314.167C11.3458 314.167 15.9916 306.448 19.7856 306.337C23.5797 306.226 21.0708 301.642 16.9123 297Z" fill="black"/>
<path d="M5.77926 296C5.77926 296 3.67313 298.752 6.74984 302.899C9.82655 307.046 12.37 310.565 11.3534 313.156C11.3534 313.156 6.70381 305.436 2.91355 305.325C-0.876711 305.214 1.61688 300.642 5.77926 296Z" fill="#9E8AFC"/>
<path opacity="0.1" d="M5.77945 296C5.59487 296.265 5.45012 296.556 5.34978 296.862C1.65927 301.193 -0.308749 305.237 3.23982 305.337C6.54287 305.433 10.5288 311.335 11.4572 312.826C11.4259 312.942 11.3887 313.056 11.3459 313.167C11.3459 313.167 6.69632 305.448 2.90606 305.337C-0.884194 305.226 1.61707 300.642 5.77945 296Z" fill="black"/>
<path d="M1.86255 299.507C1.86255 300.477 1.96997 301.262 2.10424 301.262C2.23851 301.262 2.34592 300.496 2.34592 299.507C2.34592 298.518 2.21165 298.993 2.07738 298.993C1.94311 298.993 1.86255 298.537 1.86255 299.507Z" fill="#FFD037"/>
<path d="M0.516011 300.665C1.36767 301.128 2.11191 301.408 2.17713 301.289C2.24234 301.171 1.60168 300.703 0.750025 300.239C-0.101632 299.775 0.232128 300.113 0.170747 300.239C0.109366 300.366 -0.335646 300.201 0.516011 300.665Z" fill="#FFD037"/>
<path d="M2.53394 313.807C2.53394 313.807 8.42648 313.627 10.2065 312.362C11.9866 311.097 19.2717 309.591 19.7129 311.595C20.154 313.6 28.567 321.676 21.9149 321.729C15.2628 321.783 6.45846 320.691 4.6861 319.614C2.91373 318.537 2.53394 313.807 2.53394 313.807Z" fill="#A8A8A8"/>
<path opacity="0.2" d="M22.0261 321.043C15.374 321.097 6.56972 320.005 4.79735 318.928C3.44697 318.107 2.90989 315.16 2.72959 313.799H2.53394C2.53394 313.799 2.91757 318.548 4.67843 319.625C6.43928 320.702 15.2551 321.795 21.9072 321.741C23.8254 321.741 24.489 321.04 24.4545 320.032C24.186 320.649 23.4571 321.032 22.0261 321.043Z" fill="black"/>
<line x1="241.5" y1="175" x2="241.5" y2="325" stroke="url(#paint2_linear_113_2)" stroke-width="9"/>
<path d="M354.804 114.042C354.804 114.042 322.503 112.099 326.312 134.712C326.312 134.712 325.545 138.706 329.182 140.523C329.182 140.523 329.239 138.848 332.493 139.415C333.652 139.609 334.83 139.666 336.003 139.584C337.587 139.476 339.093 138.854 340.292 137.813C340.292 137.813 349.372 134.068 352.905 119.239C352.905 119.239 355.518 116.004 355.414 115.176L349.963 117.499C349.963 117.499 351.824 121.428 350.347 124.693C350.347 124.693 350.17 117.645 349.123 117.794C348.912 117.829 346.292 119.155 346.292 119.155C346.292 119.155 349.495 126 347.059 130.971C347.059 130.971 347.976 122.539 345.271 119.649L341.435 121.888C341.435 121.888 345.179 128.955 342.64 134.724C342.64 134.724 343.292 125.878 340.629 122.432L337.15 125.142C337.15 125.142 340.668 132.11 338.523 136.893C338.523 136.893 338.243 126.594 336.398 125.816C336.398 125.816 333.356 128.499 332.892 129.599C332.892 129.599 335.301 134.655 333.808 137.322C333.808 137.322 332.892 130.462 332.14 130.423C332.14 130.423 329.109 134.969 328.791 138.089C328.791 138.089 328.925 133.451 331.403 129.99C331.403 129.99 328.472 130.492 326.765 132.393C326.765 132.393 327.237 129.178 332.136 128.898C332.136 128.898 334.641 125.448 335.312 125.241C335.312 125.241 330.421 124.831 327.455 126.146C327.455 126.146 330.064 123.114 336.206 124.49L339.659 121.692C339.659 121.692 333.221 120.811 330.49 121.784C330.49 121.784 333.632 119.101 340.583 121.056L344.324 118.821C344.324 118.821 338.834 117.641 335.562 118.055C335.562 118.055 339.014 116.196 345.417 118.212L348.102 117.012C348.102 117.012 344.078 116.223 342.9 116.1C341.723 115.977 341.661 115.648 341.661 115.648C344.217 115.233 346.838 115.537 349.23 116.525C349.23 116.525 354.9 114.398 354.804 114.042Z" fill="#9E8AFC"/>
<path d="M157.013 5.01909C157.013 5.01909 142.435 4.13754 144.138 14.3559C144.138 14.3559 143.797 16.1611 145.435 16.9814C145.435 16.9814 145.458 16.2148 146.931 16.4831C147.455 16.5692 147.986 16.5949 148.516 16.5598C149.232 16.5087 149.913 16.2277 150.457 15.7587C150.457 15.7587 154.558 14.0646 156.154 7.36478C156.154 7.36478 157.335 5.90447 157.305 5.52886L154.842 6.57905C154.842 6.57905 155.686 8.35365 155.022 9.82929C155.022 9.82929 154.941 6.64421 154.47 6.72087C154.374 6.72087 153.188 7.33412 153.188 7.33412C153.188 7.33412 154.638 10.4272 153.545 12.6733C153.545 12.6733 153.959 8.86342 152.739 7.55643L151.005 8.56829C151.005 8.56829 152.697 11.7649 151.55 14.3712C151.55 14.3712 151.842 10.3736 150.641 8.81743L149.068 10.0401C149.068 10.0401 150.656 13.1869 149.69 15.3486C149.69 15.3486 149.563 10.6955 148.727 10.3429C148.727 10.3429 147.353 11.5541 147.142 12.0523C147.142 12.0523 148.232 14.352 147.557 15.5441C147.557 15.5441 147.142 12.4433 146.789 12.4318C146.789 12.4318 145.42 14.4824 145.278 15.8813C145.344 14.5794 145.75 13.3175 146.456 12.221C145.666 12.3702 144.938 12.7473 144.361 13.3057C144.361 13.3057 144.572 11.853 146.793 11.7265C146.793 11.7265 147.925 10.1704 148.228 10.0746C148.228 10.0746 146.018 9.89062 144.679 10.4847C144.679 10.4847 145.857 9.11256 148.635 9.71814L150.169 8.45714C150.169 8.45714 147.261 8.07386 146.026 8.49547C146.026 8.49547 147.445 7.28429 150.587 8.16968L152.275 7.15781C152.275 7.15781 149.797 6.62505 148.316 6.81669C148.316 6.81669 149.878 5.9773 152.77 6.88951L153.979 6.34525C153.979 6.34525 152.16 5.9888 151.631 5.93514C151.101 5.88148 151.067 5.732 151.067 5.732C152.218 5.54059 153.401 5.67331 154.481 6.11528C154.481 6.11528 157.055 5.18007 157.013 5.01909Z" fill="#9E8AFC"/>
<path d="M295.426 324.968C303.945 324.968 310.851 323.801 310.851 322.362C310.851 320.923 303.945 319.756 295.426 319.756C286.906 319.756 280 320.923 280 322.362C280 323.801 286.906 324.968 295.426 324.968Z" fill="#9E8AFC"/>
<path d="M324.802 318.104C325.506 317.53 326.019 316.756 326.275 315.884C326.463 315.007 326.087 313.949 325.247 313.627C324.303 313.267 323.294 313.922 322.53 314.581C321.767 315.241 320.889 315.992 319.887 315.854C320.402 315.388 320.787 314.797 321.005 314.138C321.223 313.479 321.266 312.774 321.13 312.094C321.087 311.812 320.967 311.547 320.785 311.327C320.259 310.768 319.312 311.005 318.683 311.446C316.688 312.849 316.132 315.555 316.12 317.993C315.921 317.115 316.089 316.199 316.086 315.31C316.082 314.42 315.832 313.393 315.073 312.922C314.601 312.67 314.072 312.546 313.538 312.561C312.641 312.527 311.643 312.615 311.029 313.27C310.262 314.087 310.465 315.451 311.129 316.337C311.793 317.222 312.798 317.797 313.722 318.414C314.466 318.856 315.101 319.46 315.579 320.181C315.635 320.283 315.681 320.389 315.717 320.499H321.337C322.595 319.86 323.76 319.055 324.802 318.104Z" fill="#9E8AFC"/>
<path opacity="0.1" d="M178.475 348.521C273.178 348.521 349.949 341.465 349.949 332.761C349.949 324.056 273.178 317 178.475 317C83.7718 317 7 324.056 7 332.761C7 341.465 83.7718 348.521 178.475 348.521Z" fill="#9E8AFC"/>
<defs>
<linearGradient id="paint0_linear_113_2" x1="107" y1="213.667" x2="107" y2="324.5" gradientUnits="userSpaceOnUse">
<stop stop-color="#FF9B29" stop-opacity="0.7"/>
<stop offset="1" stop-color="#FF9B29"/>
</linearGradient>
<linearGradient id="paint1_linear_113_2" x1="241" y1="5.12274" x2="241" y2="174.877" gradientUnits="userSpaceOnUse">
<stop stop-color="#F65C8B" stop-opacity="0.7"/>
<stop offset="1" stop-color="#F65C8B"/>
</linearGradient>
<linearGradient id="paint2_linear_113_2" x1="237" y1="175" x2="246" y2="325" gradientUnits="userSpaceOnUse">
<stop stop-color="#6A6A6A" stop-opacity="0.7"/>
<stop offset="1" stop-color="#6A6A6A"/>
</linearGradient>
</defs>
</svg>
