<svg width="64" height="64" viewBox="0 0 64 64" fill="none" xmlns="http://www.w3.org/2000/svg">
<path d="M37.1176 47.628H29.7926C29.2403 47.628 28.7926 48.0757 28.7926 48.628V53.0983C28.7926 53.6505 29.2403 54.0983 29.7926 54.0983H37.1176C37.6699 54.0983 38.1176 53.6505 38.1176 53.0983V48.628C38.1176 48.0757 37.6699 47.628 37.1176 47.628Z" fill="#646464" stroke="#FFDC62"/>
<path d="M38.213 49.198H31.314" stroke="#FFDC62" stroke-width="0.5" stroke-linecap="round"/>
<path d="M38.213 52.5283H32.2656" stroke="#FFDC62" stroke-width="0.5" stroke-linecap="round"/>
<path d="M34.8823 50.863H28.6971" stroke="#FFDC62" stroke-width="0.5" stroke-linecap="round"/>
<path d="M38.213 50.863H36.7857" stroke="#FFDC62" stroke-width="0.5" stroke-linecap="round"/>
<path d="M21.6556 26.8107C21.6556 21.2669 26.7898 16.7013 33.2172 16.7013C39.6447 16.7013 44.7787 21.2669 44.7787 26.8107C44.7787 29.1477 44.777 30.267 44.5887 31.1979C44.404 32.1106 44.0387 32.8472 43.258 34.4023C42.1103 35.8023 41.364 37.6037 40.6767 39.3233C40.639 39.4173 40.6017 39.511 40.5647 39.6043C39.906 41.2557 39.2887 42.8033 38.4123 43.9427C37.7417 44.8147 37.0343 45.202 36.217 45.381C35.4927 45.5397 34.6867 45.5363 33.713 45.5317C33.5487 45.531 33.3793 45.5303 33.2049 45.5303C33.0156 45.5303 32.8373 45.5313 32.6688 45.532C31.7559 45.5367 31.1263 45.54 30.5499 45.388C29.8983 45.2163 29.2967 44.8363 28.4684 43.922C27.5726 42.9333 27.114 41.7707 26.5487 40.3377C26.5001 40.2147 26.4508 40.0897 26.4004 39.9627C25.7686 38.3713 24.9774 36.5183 23.3342 34.4013C22.4693 32.8376 22.0672 32.1023 21.8642 31.1914C21.6576 30.2644 21.6556 29.1493 21.6556 26.8107Z" fill="#FFF3B6" stroke="#FFDC62"/>
<path d="M32.5396 45.8673L31.9759 38.4857M31.9759 38.4857L33.667 35.533M33.667 35.533L34.9827 36.7983M34.9827 36.7983L34.043 45.8673M31.9759 38.4857C31.9759 38.4857 32.0698 37.642 31.788 37.0093C31.4121 36.1657 30.0967 36.3767 29.9088 37.431C29.7208 38.4857 30.7555 39.5517 31.9759 38.4857ZM33.667 35.533C34.299 34.7093 34.7973 34.0823 33.931 33.2587C33.3527 32.7655 32.5035 33.3397 32.5035 33.9723C32.5035 34.605 32.9793 34.924 33.667 35.533ZM34.9827 36.7983C36.072 37.853 35.596 37.541 36.298 37.853C36.969 38.1513 37.4993 36.542 36.6737 35.744C36.072 35.162 35.4033 35.371 34.9827 36.7983Z" stroke="#FFDC62" stroke-width="0.5"/>
<path d="M46.823 10.0245L26.273 6.44077C26.0506 6.402 25.8237 6.47837 25.6701 6.6437L11.4697 21.9245C11.1097 22.3119 11.3225 22.9442 11.8435 23.0351L32.3937 26.6189C32.6161 26.6576 32.8429 26.5813 32.9966 26.4159L47.197 11.1351C47.557 10.7477 47.344 10.1154 46.823 10.0245Z" fill="#323131" stroke="#FFDC62"/>
<path fill-rule="evenodd" clip-rule="evenodd" d="M14.6612 20.6501H14.1854V36.3513H13.7096V38.7303H15.1369V36.3513H14.6612V20.6501Z" fill="#323131"/>
</svg>
